<svg xmlns="http://www.w3.org/2000/svg" viewBox="0 0 429.18 342.8"><defs><style>.cls-1{fill:#231f20;}</style></defs><g id="Layer_2" data-name="Layer 2"><g id="Layer_1-2" data-name="Layer 1"><path class="cls-1" d="M359.4,55.8c0-15.34-7.28-29.68-20.5-40.4A69.36,69.36,0,0,0,296,0H163a69.34,69.34,0,0,0-42.9,15.4C108,25.18,100.92,38,99.77,51.8H57.6A57.67,57.67,0,0,0,0,109.4V285.2a57.67,57.67,0,0,0,57.6,57.6H73.9a4.26,4.26,0,0,0,.8-.08l.39-.1a2.67,2.67,0,0,0,.36-.14,3.82,3.82,0,0,0,1.28-.85l65.52-65.52a4,4,0,0,0,0-5.66A123.39,123.39,0,1,1,316.75,96a4,4,0,0,0,5.66,0l35.82-35.82a4,4,0,0,0,1.1-3.59A3.64,3.64,0,0,0,359.4,55.8Zm-129.9-4c-72.45,0-131.4,59-131.4,131.4a130.4,130.4,0,0,0,35.71,90L72.24,334.8H57.6A49.66,49.66,0,0,1,8,285.2V109.4A49.66,49.66,0,0,1,57.6,59.8h46a4,4,0,0,0,4-4c0-12.88,6.23-25,17.54-34.18A62.05,62.05,0,0,1,163,8H296c26.15,0,55.29,19.56,55.4,47.64L319.53,87.51A130.4,130.4,0,0,0,229.5,51.8Z"/><path class="cls-1" d="M332.48,199.47l-3.64,2.4-.32.2A100.74,100.74,0,0,1,160,256.16a17,17,0,0,1-6,5.35,108.73,108.73,0,0,0,183.53-65.86A60.91,60.91,0,0,1,332.48,199.47ZM229.5,74.4a108.77,108.77,0,0,0-95.76,160.41,16.86,16.86,0,0,1,6.75-4.34A100.79,100.79,0,1,1,330.3,183.2c0,.66,0,1.33,0,2,.63-.5,1.27-1,1.92-1.6,1.89-1.63,3.88-3.46,5.92-5.43l.06-.06A108.94,108.94,0,0,0,229.5,74.4Z"/><path class="cls-1" d="M154,246.55a8,8,0,0,1-8,8,8,8,0,0,1-8-8,7.77,7.77,0,0,1,.75-3.37,8,8,0,0,1,6.55-4.6q.35,0,.69,0A8,8,0,0,1,154,246.55Z"/><path class="cls-1" d="M268.65,172.37a5.37,5.37,0,0,1-.19,1.21c-.12.5-.28,1-.47,1.58s-.42,1.14-.69,1.72a9.09,9.09,0,0,1-.87,1.55,37.47,37.47,0,0,1-2.34,3.16q-1.45,1.8-3.19,3.72t-3.71,3.84c-1.32,1.29-2.61,2.45-3.88,3.51-1,.84-2.19,1.77-3.53,2.79a42.46,42.46,0,0,1-4.21,2.84,28.54,28.54,0,0,1-4.53,2.19,12.47,12.47,0,0,1-4.37.87,9.85,9.85,0,0,1-3.35-.53,6.48,6.48,0,0,1-2.74-2,13.39,13.39,0,0,1-2.19-4,37.23,37.23,0,0,1-1.63-6.53c-.21-1.13-.39-2.33-.55-3.61s-.32-2.56-.48-3.82-.31-2.49-.44-3.66-.31-2.22-.51-3.11a11.48,11.48,0,0,0-.63-2.14c-.23-.52-.48-.79-.76-.79a3.5,3.5,0,0,0-1.93,1.16,27.76,27.76,0,0,0-2.89,3.35c-1.11,1.46-2.32,3.2-3.64,5.24s-2.69,4.32-4.13,6.85a114.59,114.59,0,0,1-7.22,11.54q-3,3.94-5.38,4a4.82,4.82,0,0,1-4.9-3.42q-1.16-3.48-1.42-11.65A64.14,64.14,0,0,0,190.75,176c-.65-2.86-1.49-4.29-2.5-4.29-.64,0-1.56.57-2.77,1.71a39.2,39.2,0,0,0-4.11,4.72q-2.3,3-5,7.08T171,194.08l-1.69,2.9c-.63,1.09-1.27,2.18-1.92,3.29s-1.28,2.15-1.9,3.14-1.15,1.79-1.61,2.42a4.41,4.41,0,0,1-3.68,2.21q-4,0-5.27-4.11c-.21-.7-.38-1.27-.5-1.71a11.07,11.07,0,0,1-.42-2.77c0-.52,0-1.21,0-2,0-1.41,0-2.7.13-3.87s.2-2.37.34-3.56.32-2.48.53-3.85.42-3,.63-4.79c.18-1.51.34-3.13.48-4.85s.27-3.4.39-5,.25-3.13.37-4.5a20.73,20.73,0,0,1,.5-3.27,4.94,4.94,0,0,1,.74-1.48,11.72,11.72,0,0,1,1.34-1.6,10.35,10.35,0,0,1,1.61-1.32,2.77,2.77,0,0,1,1.48-.55,3,3,0,0,1,1.81.5,3.7,3.7,0,0,1,1.16,1.34,6.23,6.23,0,0,1,.63,2,13.69,13.69,0,0,1,.19,2.34,26,26,0,0,1-.24,3.16q-.24,1.9-.6,4.11c-.25,1.48-.52,3-.82,4.59s-.59,3.09-.87,4.53-.54,2.76-.76,4-.4,2.21-.5,3c-.32,1.93-.53,3.47-.64,4.61s-.16,2.07-.16,2.77a21,21,0,0,0,1.74-2.06c.71-.91,1.48-2,2.32-3.21s1.73-2.58,2.66-4.06,1.87-3,2.82-4.53c.67-1.09,1.41-2.32,2.24-3.69s1.69-2.74,2.58-4.13,1.78-2.7,2.66-3.93,1.69-2.26,2.43-3.11a17.49,17.49,0,0,1,4.58-3.84,10,10,0,0,1,4.95-1.32,5.86,5.86,0,0,1,4.4,2,10.12,10.12,0,0,1,2.5,5.13,29.91,29.91,0,0,1,.5,3.4c.13,1.28.24,2.63.35,4s.2,2.81.29,4.22.18,2.74.29,4a19.77,19.77,0,0,0,.45,3.06,11.06,11.06,0,0,0,.6,1.92,3.8,3.8,0,0,0,.58,1c.18.19.32.29.42.29q1,0,3.37-4.16,1.22-2.11,2.69-4.69t3.27-5.69q1.78-3.06,3.84-5.9a59,59,0,0,1,4-5,26.21,26.21,0,0,1,3.72-3.48,5.33,5.33,0,0,1,2.95-1.29,8.41,8.41,0,0,1,1.63.16,8.53,8.53,0,0,1,1.64.47,6.57,6.57,0,0,1,1.39.76,3.37,3.37,0,0,1,.92,1,8.8,8.8,0,0,1,1.14,2.87,30.33,30.33,0,0,1,.5,3.69c.1,1.39.2,2.93.29,4.63s.23,3.6.44,5.67a32.23,32.23,0,0,0,2.3,9.82c1,2.17,2.52,3.25,4.45,3.25a7.33,7.33,0,0,0,2.79-.74,26.68,26.68,0,0,0,3.58-1.93q1.91-1.18,3.85-2.68c1.3-1,2.51-2,3.64-3s2.2-2,3.24-3l3.13-3,3.24-3.24c1.11-1.13,2.29-2.32,3.56-3.58a1.71,1.71,0,0,1,1.16-.64C268.38,171,268.65,171.46,268.65,172.37Z"/><path class="cls-1" d="M352,171.42a6.33,6.33,0,0,1-.35,2,14.86,14.86,0,0,1-.84,2.06,18.91,18.91,0,0,1-1.13,2c-.42.65-.83,1.27-1.21,1.87a48,48,0,0,1-3.59,4.82q-2.06,2.45-4.39,4.77-1.23,1.22-2.49,2.34c-.77.7-1.55,1.37-2.34,2a59.42,59.42,0,0,1-4.84,3.64L329.21,198l-2,1.31a25.5,25.5,0,0,1-3.45,1.89,21.17,21.17,0,0,1-3.64,1.27A16.92,16.92,0,0,1,316,203a10.91,10.91,0,0,1-7.11-2.21,10.08,10.08,0,0,1-2.4-2.87,22.92,22.92,0,0,1-1.79-3.93,41.09,41.09,0,0,1-1.32-4.58c-.37-1.61-.68-3.21-.92-4.79q-.48-3-.9-5.3a26.85,26.85,0,0,0-1-4,7.26,7.26,0,0,0-1.34-2.48,2.67,2.67,0,0,0-2.06-.87,8.92,8.92,0,0,0-1.9.21,6.38,6.38,0,0,0-1.87.85,13.47,13.47,0,0,0-2.13,1.79,40.31,40.31,0,0,0-2.71,3.06c-1,1.26-2.23,2.81-3.56,4.63s-2.9,4-4.69,6.53c-.88,1.23-1.91,2.59-3.11,4.06s-2.41,2.88-3.66,4.22a47.46,47.46,0,0,1-3.66,3.53,9.73,9.73,0,0,1-3.16,2q-4.63-1-4.64-11.54,0-2.79.63-8.49.31-2.58.74-5.4t1.05-5.63q.64-2.82,1.45-5.48a34,34,0,0,1,1.93-4.93,7.12,7.12,0,0,1,1.1-1.66,4.11,4.11,0,0,1,1.19-.89,3.73,3.73,0,0,1,1.26-.37,10,10,0,0,1,1.35-.08c.56,0,1.06.38,1.5,1.16a6.51,6.51,0,0,1,.66,3.21,12.74,12.74,0,0,1-.21,2.37,23,23,0,0,1-.58,2.27c-.25.77-.51,1.6-.79,2.5s-.57,1.92-.85,3.08c-.21,1-.45,2-.71,3.16s-.51,2.34-.74,3.53-.42,2.37-.58,3.51a24,24,0,0,0-.23,3.08,6.49,6.49,0,0,0,.31,2c1-.11,2.6-1.58,4.85-4.43l3.82-4.74q2.09-2.58,4.5-5.69c1.2-1.54,2.38-3,3.56-4.32a29.13,29.13,0,0,1,3.66-3.5,16.71,16.71,0,0,1,4-2.37,12.43,12.43,0,0,1,4.72-.87,8.22,8.22,0,0,1,4.56,1.18,8.68,8.68,0,0,1,2.92,3.27,18.63,18.63,0,0,1,1.71,5,63.6,63.6,0,0,1,1,6.37q.31,3,.6,5.85a21.09,21.09,0,0,0,1.14,5.19,9.15,9.15,0,0,0,2.42,3.72,6.58,6.58,0,0,0,4.53,1.42,12,12,0,0,0,4.74-1.06,30.4,30.4,0,0,0,5.22-2.92c.54-.37,1.08-.75,1.63-1.16q2-1.46,4-3.24c1.34-1.16,2.72-2.4,4.12-3.72.63-.58,1.27-1.19,1.92-1.81a34.68,34.68,0,0,0,2.66-2.93q1.44-1.76,2.84-3.39c.93-1.09,1.8-2,2.61-2.8a3.38,3.38,0,0,1,1.95-1.16,3.08,3.08,0,0,1,1,.32A1.08,1.08,0,0,1,352,171.42Z"/><path class="cls-1" d="M138.29,320.58q2.51,2.1,2.51,6.47t-2.56,6.4q-2.56,2-7.86,2h-4.26v7h-4.06v-24h8.25Q135.79,318.48,138.29,320.58Zm-2.87,9.92a5.32,5.32,0,0,0,1.22-3.78,3.91,3.91,0,0,0-1.55-3.52,8.89,8.89,0,0,0-4.85-1h-4.12v9.63h4.71Q134.19,331.79,135.42,330.5Z"/><path class="cls-1" d="M149,342.52v-24h4.06V328.9H165V318.48h4.06v24H165v-9.83H153.08v9.83Z"/><path class="cls-1" d="M199.3,339.21a13.18,13.18,0,0,1-18,0,12.64,12.64,0,0,1,0-17.75,13.18,13.18,0,0,1,18,0,12.61,12.61,0,0,1,0,17.75Zm-3-15a8.43,8.43,0,0,0-12.08,0,9,9,0,0,0,0,12.35,8.45,8.45,0,0,0,12.08,0,9,9,0,0,0,0-12.35Z"/><path class="cls-1" d="M219.94,322.2v20.32h-4.06V322.2h-7.29v-3.72h18.64v3.72Z"/><path class="cls-1" d="M254.54,339.21a13.19,13.19,0,0,1-18,0,12.64,12.64,0,0,1,0-17.75,13.19,13.19,0,0,1,18,0,12.64,12.64,0,0,1,0,17.75Zm-3-15a8.42,8.42,0,0,0-12.07,0,9,9,0,0,0,0,12.35,8.44,8.44,0,0,0,12.07,0,9,9,0,0,0,0-12.35Z"/><path class="cls-1" d="M283.39,330.83h4.06v8.22q-3.4,3.75-9.73,3.75a12.28,12.28,0,0,1-8.93-3.51,12.75,12.75,0,0,1,.07-17.81,12.19,12.19,0,0,1,8.86-3.58,12.57,12.57,0,0,1,8.63,3L284.18,324a8.42,8.42,0,0,0-2.84-1.67,10.7,10.7,0,0,0-3.32-.46,8.5,8.5,0,0,0-6.12,2.36,8.46,8.46,0,0,0,5.76,14.66,10.37,10.37,0,0,0,5.73-1.48Z"/><path class="cls-1" d="M315.41,326.29q0,6-5.19,7.5l6.29,8.73h-5.16l-5.74-8.08h-5.33v8.08h-4.06v-24h8.94c3.67,0,6.29.62,7.88,1.86S315.41,323.56,315.41,326.29ZM310,329.7a4.28,4.28,0,0,0,1.24-3.43A3.68,3.68,0,0,0,310,323a8.53,8.53,0,0,0-4.54-.88h-5.16v8.6h5.05C307.62,330.76,309.18,330.41,310,329.7Z"/><path class="cls-1" d="M328.1,337.06l-2.41,5.46h-4.33l10.59-24h4.33l10.6,24h-4.34l-2.4-5.46Zm10.39-3.75-4.37-9.91-4.37,9.91Z"/><path class="cls-1" d="M369.89,320.58q2.5,2.1,2.51,6.47t-2.57,6.4q-2.55,2-7.85,2h-4.27v7h-4.06v-24h8.26Q367.37,318.48,369.89,320.58ZM367,330.5a5.32,5.32,0,0,0,1.22-3.78,3.91,3.91,0,0,0-1.55-3.52,8.89,8.89,0,0,0-4.85-1h-4.13v9.63h4.71C364.67,331.79,366.2,331.36,367,330.5Z"/><path class="cls-1" d="M380.62,342.52v-24h4.05V328.9h11.94V318.48h4.06v24h-4.06v-9.83H384.67v9.83Z"/><path class="cls-1" d="M420.24,342.52h-4.13V333l-8.94-14.55h4.43l6.57,10.94,6.57-10.94h4.44L420.24,333Z"/><path class="cls-1" d="M183.92,247.87v.4h-3.07v-5.6h.43v5.2Z"/><path class="cls-1" d="M188.88,245.47a2.89,2.89,0,1,1,2.88,2.88A2.87,2.87,0,0,1,188.88,245.47Zm5.35,0a2.47,2.47,0,1,0-2.47,2.48A2.45,2.45,0,0,0,194.23,245.47Z"/><path class="cls-1" d="M202.72,246H201v2.3h-.42v-5.6h2.2a1.65,1.65,0,0,1,.43,3.25l1.39,2.35h-.49Zm-1.77-.4h1.78a1.25,1.25,0,0,0,0-2.5H201Z"/><path class="cls-1" d="M213.45,247.87v.4h-3.22v-5.6h3.18v.4h-2.76v2.17h2.56v.4h-2.56v2.23Z"/><path class="cls-1" d="M224.35,248.27h-.42v-5l-2.07,3.44h-.07l-2.07-3.44v5h-.43v-5.6h.53l2,3.31,2-3.31h.53Z"/><path class="cls-1" d="M237.91,242.67v5.6h-.42v-5.6Z"/><path class="cls-1" d="M247.75,244.4a1.69,1.69,0,0,1-1.74,1.73h-1.48v2.14h-.43v-5.6H246A1.69,1.69,0,0,1,247.75,244.4Zm-.43,0a1.28,1.28,0,0,0-1.31-1.33h-1.48v2.66H246A1.28,1.28,0,0,0,247.32,244.4Z"/><path class="cls-1" d="M253.1,247l.37-.22a1.59,1.59,0,0,0,1.68,1.13c.93,0,1.41-.48,1.41-1.12s-.6-.93-1.45-1.2-1.78-.57-1.78-1.54a1.55,1.55,0,0,1,1.7-1.51,1.88,1.88,0,0,1,1.8,1.18l-.36.2a1.47,1.47,0,0,0-1.44-1,1.12,1.12,0,0,0-1.26,1.08c0,.67.56.88,1.36,1.14,1,.33,1.86.64,1.86,1.61s-.73,1.53-1.84,1.53A2,2,0,0,1,253.1,247Z"/><path class="cls-1" d="M262.75,246.4v-3.73h.42v3.73a1.63,1.63,0,0,0,3.26,0v-3.73h.42v3.73a2.05,2.05,0,0,1-4.1,0Z"/><path class="cls-1" d="M278,248.27h-.43v-5l-2.07,3.44h-.07l-2.07-3.44v5H273v-5.6h.53l2,3.31,2-3.31H278Z"/></g></g></svg>