<?xml version="1.0" encoding="utf-8"?><!DOCTYPE svg PUBLIC "-//W3C//DTD SVG 1.1//EN" "http://www.w3.org/Graphics/SVG/1.1/DTD/svg11.dtd"><svg viewBox="0 0 513.64 513.64" xmlns="http://www.w3.org/2000/svg" xmlns:xlink="http://www.w3.org/1999/xlink"><style>:root>svg{display:none}:root>svg:target{display:block}</style><svg fill-rule="evenodd" clip-rule="evenodd" viewBox="0 0 24 24" id="arrow-next" xmlns="http://www.w3.org/2000/svg"><path d="M12 0c6.623 0 12 5.377 12 12s-5.377 12-12 12S0 18.623 0 12 5.377 0 12 0zm0 1c6.071 0 11 4.929 11 11s-4.929 11-11 11S1 18.071 1 12 5.929 1 12 1zM9 6.753L15.44 12 9 17.263l.678.737L17 12 9.665 6 9 6.753z"/></svg><svg fill-rule="evenodd" clip-rule="evenodd" viewBox="0 0 24 24" id="arrow-prev" xmlns="http://www.w3.org/2000/svg"><path d="M12 0c6.623 0 12 5.377 12 12s-5.377 12-12 12S0 18.623 0 12 5.377 0 12 0zm0 1c6.071 0 11 4.929 11 11s-4.929 11-11 11S1 18.071 1 12 5.929 1 12 1zm3 5.753L8.56 12 15 17.263l-.678.737L7 12l7.335-6 .665.753z"/></svg><svg viewBox="0 0 97.75 97.75" id="facebook" xmlns="http://www.w3.org/2000/svg"><path d="M48.875 0C21.882 0 0 21.882 0 48.875S21.882 97.75 48.875 97.75 97.75 75.868 97.75 48.875 75.868 0 48.875 0zm18.646 24.89l-6.76.003c-5.301 0-6.326 2.519-6.326 6.215v8.15h12.641l-.006 12.765H54.436v32.758H41.251V52.023H30.229V39.258h11.022v-9.414c0-10.925 6.675-16.875 16.42-16.875l9.851.015V24.89h-.001z"/></svg><svg viewBox="0 0 24 24" id="instagram" xmlns="http://www.w3.org/2000/svg"><path d="M17.25 7.288v1.269a.539.539 0 01-.538.539h-1.269a.538.538 0 01-.538-.539V7.288c0-.297.239-.538.538-.538h1.269c.297 0 .538.241.538.538zM12 14.691a2.691 2.691 0 10.003-5.381A2.691 2.691 0 0012 14.69zm4.261-3.291c.028.196.046.396.046.599A4.307 4.307 0 117.693 12c0-.204.018-.403.046-.599.027-.194.066-.383.118-.567H6.75v5.879c0 .297.241.538.538.538h9.424a.538.538 0 00.538-.538v-5.879h-1.107c.05.184.09.373.118.566zM24 12c0 6.627-5.373 12-12 12S0 18.627 0 12 5.373 0 12 0s12 5.373 12 12zm-5-5.385C19 5.723 18.277 5 17.385 5H6.615C5.723 5 5 5.723 5 6.615v10.769C5 18.277 5.723 19 6.615 19h10.77c.892 0 1.615-.723 1.615-1.616V6.615z"/></svg><svg viewBox="0 0 512 512" id="location" xmlns="http://www.w3.org/2000/svg"><path d="M407.579 87.677C376.506 34.053 321.314 1.292 259.939.04c-2.62-.054-5.257-.054-7.878 0-61.374 1.252-116.566 34.013-147.64 87.637-31.762 54.812-32.631 120.652-2.325 176.123l126.963 232.387c.057.103.114.206.173.308 5.586 9.709 15.593 15.505 26.77 15.505 11.176 0 21.183-5.797 26.768-15.505.059-.102.116-.205.173-.308L409.906 263.8c30.304-55.471 29.435-121.311-2.327-176.123zM256 232c-39.701 0-72-32.299-72-72s32.299-72 72-72 72 32.299 72 72-32.298 72-72 72z"/></svg><svg viewBox="0 0 429.18 342.8" id="logo" xmlns="http://www.w3.org/2000/svg"><defs><style>.fcls-1{fill:#231f20}</style></defs><g id="fLayer_2" data-name="Layer 2"><g id="fLayer_1-2" data-name="Layer 1"><path class="fcls-1" d="M359.4 55.8c0-15.34-7.28-29.68-20.5-40.4A69.36 69.36 0 00296 0H163a69.34 69.34 0 00-42.9 15.4C108 25.18 100.92 38 99.77 51.8H57.6A57.67 57.67 0 000 109.4v175.8a57.67 57.67 0 0057.6 57.6h16.3a4.26 4.26 0 00.8-.08l.39-.1a2.67 2.67 0 00.36-.14 3.82 3.82 0 001.28-.85l65.52-65.52a4 4 0 000-5.66A123.39 123.39 0 11316.75 96a4 4 0 005.66 0l35.82-35.82a4 4 0 001.1-3.59 3.64 3.64 0 00.07-.79zm-129.9-4c-72.45 0-131.4 59-131.4 131.4a130.4 130.4 0 0035.71 90l-61.57 61.6H57.6A49.66 49.66 0 018 285.2V109.4a49.66 49.66 0 0149.6-49.6h46a4 4 0 004-4c0-12.88 6.23-25 17.54-34.18A62.05 62.05 0 01163 8h133c26.15 0 55.29 19.56 55.4 47.64l-31.87 31.87A130.4 130.4 0 00229.5 51.8z"/><path class="fcls-1" d="M332.48 199.47l-3.64 2.4-.32.2A100.74 100.74 0 01160 256.16a17 17 0 01-6 5.35 108.73 108.73 0 00183.53-65.86 60.91 60.91 0 01-5.05 3.82zM229.5 74.4a108.77 108.77 0 00-95.76 160.41 16.86 16.86 0 016.75-4.34A100.79 100.79 0 11330.3 183.2v2c.63-.5 1.27-1 1.92-1.6 1.89-1.63 3.88-3.46 5.92-5.43l.06-.06A108.94 108.94 0 00229.5 74.4zM154 246.55a8 8 0 01-8 8 8 8 0 01-8-8 7.77 7.77 0 01.75-3.37 8 8 0 016.55-4.6h.69a8 8 0 018.01 7.97z"/><path class="fcls-1" d="M268.65 172.37a5.37 5.37 0 01-.19 1.21c-.12.5-.28 1-.47 1.58s-.42 1.14-.69 1.72a9.09 9.09 0 01-.87 1.55 37.47 37.47 0 01-2.34 3.16q-1.45 1.8-3.19 3.72t-3.71 3.84a66.57 66.57 0 01-3.88 3.51c-1 .84-2.19 1.77-3.53 2.79a42.46 42.46 0 01-4.21 2.84 28.54 28.54 0 01-4.53 2.19 12.47 12.47 0 01-4.37.87 9.85 9.85 0 01-3.35-.53 6.48 6.48 0 01-2.74-2 13.39 13.39 0 01-2.19-4 37.23 37.23 0 01-1.63-6.53c-.21-1.13-.39-2.33-.55-3.61s-.32-2.56-.48-3.82-.31-2.49-.44-3.66-.31-2.22-.51-3.11a11.48 11.48 0 00-.63-2.14c-.23-.52-.48-.79-.76-.79a3.5 3.5 0 00-1.93 1.16 27.76 27.76 0 00-2.89 3.35c-1.11 1.46-2.32 3.2-3.64 5.24s-2.69 4.32-4.13 6.85a114.59 114.59 0 01-7.22 11.54q-3 3.94-5.38 4a4.82 4.82 0 01-4.9-3.42q-1.16-3.48-1.42-11.65a64.14 64.14 0 00-1.13-12.23c-.65-2.86-1.49-4.29-2.5-4.29-.64 0-1.56.57-2.77 1.71a39.2 39.2 0 00-4.11 4.72q-2.3 3-5 7.08t-5.37 8.86l-1.69 2.9c-.63 1.09-1.27 2.18-1.92 3.29s-1.28 2.15-1.9 3.14-1.15 1.79-1.61 2.42a4.41 4.41 0 01-3.68 2.21q-4 0-5.27-4.11c-.21-.7-.38-1.27-.5-1.71a11.07 11.07 0 01-.42-2.77v-2c0-1.41 0-2.7.13-3.87s.2-2.37.34-3.56.32-2.48.53-3.85.42-3 .63-4.79c.18-1.51.34-3.13.48-4.85s.27-3.4.39-5 .25-3.13.37-4.5a20.73 20.73 0 01.5-3.27 4.94 4.94 0 01.74-1.48 11.72 11.72 0 011.34-1.6 10.35 10.35 0 011.61-1.32 2.77 2.77 0 011.48-.55 3 3 0 011.81.5 3.7 3.7 0 011.16 1.34 6.23 6.23 0 01.63 2 13.69 13.69 0 01.19 2.34 26 26 0 01-.24 3.16q-.24 1.9-.6 4.11c-.25 1.48-.52 3-.82 4.59s-.59 3.09-.87 4.53-.54 2.76-.76 4-.4 2.21-.5 3c-.32 1.93-.53 3.47-.64 4.61s-.16 2.07-.16 2.77a21 21 0 001.74-2.06c.71-.91 1.48-2 2.32-3.21s1.73-2.58 2.66-4.06 1.87-3 2.82-4.53c.67-1.09 1.41-2.32 2.24-3.69s1.69-2.74 2.58-4.13 1.78-2.7 2.66-3.93 1.69-2.26 2.43-3.11a17.49 17.49 0 014.58-3.84 10 10 0 014.95-1.32 5.86 5.86 0 014.4 2 10.12 10.12 0 012.5 5.13 29.91 29.91 0 01.5 3.4c.13 1.28.24 2.63.35 4s.2 2.81.29 4.22.18 2.74.29 4a19.77 19.77 0 00.45 3.06 11.06 11.06 0 00.6 1.92 3.8 3.8 0 00.58 1c.18.19.32.29.42.29q1 0 3.37-4.16 1.22-2.11 2.69-4.69t3.27-5.69q1.78-3.06 3.84-5.9a59 59 0 014-5 26.21 26.21 0 013.72-3.48 5.33 5.33 0 012.95-1.29 8.41 8.41 0 011.63.16 8.53 8.53 0 011.64.47 6.57 6.57 0 011.39.76 3.37 3.37 0 01.92 1 8.8 8.8 0 011.14 2.87 30.33 30.33 0 01.5 3.69c.1 1.39.2 2.93.29 4.63s.23 3.6.44 5.67a32.23 32.23 0 002.3 9.82c1 2.17 2.52 3.25 4.45 3.25a7.33 7.33 0 002.79-.74 26.68 26.68 0 003.58-1.93q1.91-1.18 3.85-2.68c1.3-1 2.51-2 3.64-3s2.2-2 3.24-3l3.13-3 3.24-3.24c1.11-1.13 2.29-2.32 3.56-3.58a1.71 1.71 0 011.16-.64c.54-.2.81.26.81 1.17z"/><path class="fcls-1" d="M352 171.42a6.33 6.33 0 01-.35 2 14.86 14.86 0 01-.84 2.06 18.91 18.91 0 01-1.13 2c-.42.65-.83 1.27-1.21 1.87a48 48 0 01-3.59 4.82q-2.06 2.45-4.39 4.77-1.23 1.22-2.49 2.34c-.77.7-1.55 1.37-2.34 2a59.42 59.42 0 01-4.84 3.64l-1.61 1.08-2 1.31a25.5 25.5 0 01-3.45 1.89 21.17 21.17 0 01-3.64 1.27 16.92 16.92 0 01-4.12.53 10.91 10.91 0 01-7.11-2.21 10.08 10.08 0 01-2.4-2.87 22.92 22.92 0 01-1.79-3.93 41.09 41.09 0 01-1.32-4.58c-.37-1.61-.68-3.21-.92-4.79q-.48-3-.9-5.3a26.85 26.85 0 00-1-4 7.26 7.26 0 00-1.34-2.48 2.67 2.67 0 00-2.06-.87 8.92 8.92 0 00-1.9.21 6.38 6.38 0 00-1.87.85 13.47 13.47 0 00-2.13 1.79 40.31 40.31 0 00-2.71 3.06c-1 1.26-2.23 2.81-3.56 4.63s-2.9 4-4.69 6.53c-.88 1.23-1.91 2.59-3.11 4.06s-2.41 2.88-3.66 4.22a47.46 47.46 0 01-3.66 3.53 9.73 9.73 0 01-3.16 2q-4.63-1-4.64-11.54 0-2.79.63-8.49.31-2.58.74-5.4t1.05-5.63q.64-2.82 1.45-5.48a34 34 0 011.93-4.93 7.12 7.12 0 011.1-1.66 4.11 4.11 0 011.19-.89 3.73 3.73 0 011.26-.37 10 10 0 011.35-.08c.56 0 1.06.38 1.5 1.16a6.51 6.51 0 01.66 3.21 12.74 12.74 0 01-.21 2.37 23 23 0 01-.58 2.27c-.25.77-.51 1.6-.79 2.5s-.57 1.92-.85 3.08c-.21 1-.45 2-.71 3.16s-.51 2.34-.74 3.53-.42 2.37-.58 3.51a24 24 0 00-.23 3.08 6.49 6.49 0 00.31 2c1-.11 2.6-1.58 4.85-4.43l3.82-4.74q2.09-2.58 4.5-5.69c1.2-1.54 2.38-3 3.56-4.32a29.13 29.13 0 013.66-3.5 16.71 16.71 0 014-2.37 12.43 12.43 0 014.72-.87 8.22 8.22 0 014.56 1.18 8.68 8.68 0 012.92 3.27 18.63 18.63 0 011.71 5 63.6 63.6 0 011 6.37q.31 3 .6 5.85a21.09 21.09 0 001.14 5.19 9.15 9.15 0 002.42 3.72 6.58 6.58 0 004.53 1.42 12 12 0 004.74-1.06 30.4 30.4 0 005.22-2.92c.54-.37 1.08-.75 1.63-1.16q2-1.46 4-3.24c1.34-1.16 2.72-2.4 4.12-3.72.63-.58 1.27-1.19 1.92-1.81a34.68 34.68 0 002.66-2.93q1.44-1.76 2.84-3.39c.93-1.09 1.8-2 2.61-2.8a3.38 3.38 0 011.95-1.16 3.08 3.08 0 011 .32 1.08 1.08 0 01.77.96zM138.29 320.58q2.51 2.1 2.51 6.47t-2.56 6.4q-2.56 2-7.86 2h-4.26v7h-4.06v-24h8.25q5.48.03 7.98 2.13zm-2.87 9.92a5.32 5.32 0 001.22-3.78 3.91 3.91 0 00-1.55-3.52 8.89 8.89 0 00-4.85-1h-4.12v9.63h4.71q3.36-.04 4.59-1.33zM149 342.52v-24h4.06v10.38H165v-10.42h4.06v24H165v-9.83h-11.92v9.83zM199.3 339.21a13.18 13.18 0 01-18 0 12.64 12.64 0 010-17.75 13.18 13.18 0 0118 0 12.61 12.61 0 010 17.75zm-3-15a8.43 8.43 0 00-12.08 0 9 9 0 000 12.35 8.45 8.45 0 0012.08 0 9 9 0 000-12.35zM219.94 322.2v20.32h-4.06V322.2h-7.29v-3.72h18.64v3.72zM254.54 339.21a13.19 13.19 0 01-18 0 12.64 12.64 0 010-17.75 13.19 13.19 0 0118 0 12.64 12.64 0 010 17.75zm-3-15a8.42 8.42 0 00-12.07 0 9 9 0 000 12.35 8.44 8.44 0 0012.07 0 9 9 0 000-12.35zM283.39 330.83h4.06v8.22q-3.4 3.75-9.73 3.75a12.28 12.28 0 01-8.93-3.51 12.75 12.75 0 01.07-17.81 12.19 12.19 0 018.86-3.58 12.57 12.57 0 018.63 3l-2.17 3.1a8.42 8.42 0 00-2.84-1.67 10.7 10.7 0 00-3.32-.46 8.5 8.5 0 00-6.12 2.36 8.46 8.46 0 005.76 14.66 10.37 10.37 0 005.73-1.48zM315.41 326.29q0 6-5.19 7.5l6.29 8.73h-5.16l-5.74-8.08h-5.33v8.08h-4.06v-24h8.94c3.67 0 6.29.62 7.88 1.86s2.37 3.18 2.37 5.91zM310 329.7a4.28 4.28 0 001.24-3.43A3.68 3.68 0 00310 323a8.53 8.53 0 00-4.54-.88h-5.16v8.6h5.05c2.27.04 3.83-.31 4.65-1.02zM328.1 337.06l-2.41 5.46h-4.33l10.59-24h4.33l10.6 24h-4.34l-2.4-5.46zm10.39-3.75l-4.37-9.91-4.37 9.91zM369.89 320.58q2.5 2.1 2.51 6.47t-2.57 6.4q-2.55 2-7.85 2h-4.27v7h-4.06v-24h8.26q5.46.03 7.98 2.13zM367 330.5a5.32 5.32 0 001.22-3.78 3.91 3.91 0 00-1.55-3.52 8.89 8.89 0 00-4.85-1h-4.13v9.63h4.71c2.27-.04 3.8-.47 4.6-1.33zM380.62 342.52v-24h4.05v10.38h11.94v-10.42h4.06v24h-4.06v-9.83h-11.94v9.83zM420.24 342.52h-4.13V333l-8.94-14.55h4.43l6.57 10.94 6.57-10.94h4.44L420.24 333zM183.92 247.87v.4h-3.07v-5.6h.43v5.2zM188.88 245.47a2.89 2.89 0 112.88 2.88 2.87 2.87 0 01-2.88-2.88zm5.35 0a2.47 2.47 0 10-2.47 2.48 2.45 2.45 0 002.47-2.48zM202.72 246H201v2.3h-.42v-5.6h2.2a1.65 1.65 0 01.43 3.25l1.39 2.35h-.49zm-1.77-.4h1.78a1.25 1.25 0 000-2.5H201zM213.45 247.87v.4h-3.22v-5.6h3.18v.4h-2.76v2.17h2.56v.4h-2.56v2.23zM224.35 248.27h-.42v-5l-2.07 3.44h-.07l-2.07-3.44v5h-.43v-5.6h.53l2 3.31 2-3.31h.53zM237.91 242.67v5.6h-.42v-5.6zM247.75 244.4a1.69 1.69 0 01-1.74 1.73h-1.48v2.14h-.43v-5.6h1.9a1.69 1.69 0 011.75 1.73zm-.43 0a1.28 1.28 0 00-1.31-1.33h-1.48v2.66H246a1.28 1.28 0 001.32-1.33zM253.1 247l.37-.22a1.59 1.59 0 001.68 1.13c.93 0 1.41-.48 1.41-1.12s-.6-.93-1.45-1.2-1.78-.57-1.78-1.54a1.55 1.55 0 011.7-1.51 1.88 1.88 0 011.8 1.18l-.36.2a1.47 1.47 0 00-1.44-1 1.12 1.12 0 00-1.26 1.08c0 .67.56.88 1.36 1.14 1 .33 1.86.64 1.86 1.61s-.73 1.53-1.84 1.53a2 2 0 01-2.05-1.28zM262.75 246.4v-3.73h.42v3.73a1.63 1.63 0 003.26 0v-3.73h.42v3.73a2.05 2.05 0 01-4.1 0zM278 248.27h-.43v-5l-2.07 3.44h-.07l-2.07-3.44v5H273v-5.6h.53l2 3.31 2-3.31h.47z"/></g></g></svg><svg viewBox="0 0 512 512" id="mail" xmlns="http://www.w3.org/2000/svg"><path d="M507.49 101.721L352.211 256 507.49 410.279c2.807-5.867 4.51-12.353 4.51-19.279V121c0-6.927-1.703-13.412-4.51-19.279zM467 76H45c-6.927 0-13.412 1.703-19.279 4.51l198.463 197.463c17.548 17.548 46.084 17.548 63.632 0L486.279 80.51C480.412 77.703 473.927 76 467 76zM4.51 101.721C1.703 107.588 0 114.073 0 121v270c0 6.927 1.703 13.413 4.51 19.279L159.789 256 4.51 101.721z"/><path d="M331 277.211l-21.973 21.973c-29.239 29.239-76.816 29.239-106.055 0L181 277.211 25.721 431.49C31.588 434.297 38.073 436 45 436h422c6.927 0 13.412-1.703 19.279-4.51L331 277.211z"/></svg><svg viewBox="0 0 513.64 513.64" id="phone" xmlns="http://www.w3.org/2000/svg"><path d="M499.66 376.96l-71.68-71.68c-25.6-25.6-69.12-15.359-79.36 17.92-7.68 23.041-33.28 35.841-56.32 30.72-51.2-12.8-120.32-79.36-133.12-133.12-7.68-23.041 7.68-48.641 30.72-56.32 33.28-10.24 43.52-53.76 17.92-79.36l-71.68-71.68c-20.48-17.92-51.2-17.92-69.12 0L18.38 62.08c-48.64 51.2 5.12 186.88 125.44 307.2s256 176.641 307.2 125.44l48.64-48.64c17.921-20.48 17.921-51.2 0-69.12z"/></svg><svg viewBox="0 0 97.75 97.75" id="pinterest" xmlns="http://www.w3.org/2000/svg"><path d="M48.875 0C21.883 0 0 21.882 0 48.875S21.883 97.75 48.875 97.75 97.75 75.868 97.75 48.875 75.867 0 48.875 0zm5.624 65.109c-4.521 0-8.773-2.444-10.229-5.219 0 0-2.432 9.645-2.943 11.506-1.813 6.58-7.146 13.162-7.561 13.701-.289.375-.928.258-.994-.24-.113-.838-1.475-9.139.127-15.909.801-3.4 5.383-22.814 5.383-22.814s-1.334-2.673-1.334-6.625c0-6.205 3.596-10.837 8.074-10.837 3.807 0 5.645 2.859 5.645 6.286 0 3.828-2.436 9.552-3.693 14.856-1.051 4.441 2.225 8.064 6.605 8.064 7.933 0 13.272-10.188 13.272-22.261 0-9.174-6.176-16.044-17.418-16.044-12.697 0-20.615 9.471-20.615 20.052 0 3.646 1.078 6.221 2.764 8.21.773.915.883 1.283.602 2.333-.203.771-.66 2.625-.854 3.358-.279 1.062-1.137 1.44-2.098 1.049-5.846-2.387-8.572-8.793-8.572-15.994 0-11.893 10.029-26.154 29.922-26.154 15.985 0 26.506 11.566 26.506 23.984.001 16.428-9.132 28.698-22.589 28.698z"/></svg><svg viewBox="0 0 97.75 97.75" id="twitter" xmlns="http://www.w3.org/2000/svg"><path d="M48.875 0C21.882 0 0 21.882 0 48.875S21.882 97.75 48.875 97.75 97.75 75.868 97.75 48.875 75.868 0 48.875 0zM78.43 35.841c.023.577.035 1.155.035 1.736 0 20.878-15.887 42.473-42.473 42.473a42.306 42.306 0 01-22.883-6.708.36.36 0 01-.145-.427.365.365 0 01.383-.237c1.148.137 2.322.205 3.487.205 6.323 0 12.309-1.955 17.372-5.664a15.157 15.157 0 01-13.161-10.478.364.364 0 01.073-.351.365.365 0 01.339-.115 14.55 14.55 0 005.04.072c-6.259-1.945-10.658-7.808-10.658-14.483l.002-.194a.362.362 0 01.537-.309 14.493 14.493 0 005.291 1.711A15.144 15.144 0 0115.96 31.21c0-2.682.71-5.318 2.054-7.623a.36.36 0 01.284-.178.354.354 0 01.309.132c7.362 9.03 18.191 14.59 29.771 15.305a15.344 15.344 0 01-.291-2.985c0-8.361 6.802-15.162 15.162-15.162 4.11 0 8.082 1.689 10.929 4.641a29.23 29.23 0 009.09-3.508.363.363 0 01.41.028c.116.094.164.25.118.394a15.14 15.14 0 01-5.33 7.489 29.15 29.15 0 006.831-2.072.361.361 0 01.447.533 30.22 30.22 0 01-7.314 7.637z"/></svg></svg>